<svg width="20" height="14" viewBox="0 0 20 14" fill="none" xmlns="http://www.w3.org/2000/svg">
<path d="M15 7C16.6562 7 18 5.65625 18 4C18 2.34375 16.6562 1 15 1C13.3438 1 12 2.34375 12 4C12 5.65625 13.3438 7 15 7ZM15 2.5C15.8125 2.5 16.5 3.1875 16.5 4C16.5 4.84375 15.8125 5.5 15 5.5C14.1562 5.5 13.5 4.84375 13.5 4C13.5 3.1875 14.1562 2.5 15 2.5ZM8.5 7.625C8.125 7.625 7.75 7.6875 7.375 7.8125C6.9375 7.9375 6.46875 8 5.96875 8C5.5 8 5.03125 7.9375 4.59375 7.8125C4.21875 7.6875 3.84375 7.625 3.46875 7.625C2.34375 7.625 1.25 8.15625 0.59375 9.09375C0.21875 9.6875 0 10.375 0 11.125V12.5C0 13.3438 0.65625 14 1.5 14H10.5C11.3125 14 12 13.3438 12 12.5V11.125C12 10.375 11.75 9.6875 11.375 9.09375C10.7188 8.15625 9.625 7.625 8.5 7.625ZM10.5 12.5H1.5V11.125C1.5 10.2188 2.0625 9.4375 2.875 9.15625C3.1875 9.03125 3.53125 9.03125 3.875 9.15625C4.5625 9.375 5.28125 9.5 6 9.5C6.71875 9.5 7.40625 9.375 8.125 9.15625C8.4375 9.03125 8.78125 9.03125 9.125 9.15625C9.90625 9.4375 10.5 10.2188 10.5 11.125V12.5ZM6 7C7.90625 7 9.5 5.4375 9.5 3.5C9.5 1.59375 7.90625 0 6 0C4.0625 0 2.5 1.59375 2.5 3.5C2.5 5.4375 4.0625 7 6 7ZM6 1.5C7.09375 1.5 8 2.40625 8 3.5C8 4.625 7.09375 5.5 6 5.5C4.875 5.5 4 4.625 4 3.5C4 2.40625 4.875 1.5 6 1.5ZM19.4688 8.9375C18.9375 8.125 18.0312 7.6875 17.0625 7.6875C16.2188 7.6875 16 8 15 8C14 8 13.7812 7.6875 12.9062 7.6875C12.4688 7.6875 12.0938 7.78125 11.7188 7.96875C11.875 8.125 12.0625 8.34375 12.2188 8.53125C12.3438 8.75 12.4688 9 12.5938 9.21875C12.6875 9.21875 12.7812 9.1875 12.9062 9.1875C13.4375 9.1875 13.8125 9.5 15 9.5C16.1562 9.5 16.5312 9.1875 17.0625 9.1875C17.5625 9.1875 18 9.40625 18.2188 9.75C18.4062 10 18.5 10.2812 18.5 10.5938V11.5H13V12.5C13 12.6875 12.9688 12.8438 12.9375 13H18.75C19.4375 13 20 12.4688 20 11.75V10.5938C20 9.96875 19.8125 9.40625 19.4688 8.9375Z" fill="#6F382B"/>
</svg>
