<svg width="21" height="16" viewBox="0 0 21 16" fill="none" xmlns="http://www.w3.org/2000/svg">
<path d="M19.8125 3.71875L17.7812 0.46875C17.5938 0.1875 17.2812 0 16.9375 0H4.3125C3.96875 0 3.625 0.1875 3.4375 0.46875L1.4375 3.71875C0.5 5.1875 1.125 7.1875 2.625 7.8125V14.9062C2.625 15.5312 3.0625 16 3.625 16H17.625C18.1562 16 18.625 15.5312 18.625 14.9062V7.8125C20.125 7.1875 20.7188 5.1875 19.8125 3.71875ZM17.125 14.5H4.125V11.5H17.125V14.5ZM17.0938 10H4.125V8C4.875 7.875 5.53125 7.5 6 6.96875C6.5625 7.59375 7.375 8 8.3125 8C9.21875 8 10.0312 7.59375 10.5938 6.96875C11.1562 7.59375 12 8 12.9062 8C13.8438 8 14.6562 7.59375 15.2188 6.96875C15.6875 7.5 16.3438 7.875 17.0938 8V10ZM18.5938 5.84375C18.5 6.0625 18.25 6.4375 17.75 6.5C17.6875 6.5 17.5938 6.53125 17.5312 6.53125C17.0625 6.53125 16.6562 6.3125 16.3438 5.96875L15.2188 4.71875L14.125 5.96875C13.8125 6.3125 13.375 6.5 12.9062 6.5C12.4688 6.5 12.0312 6.3125 11.7188 5.96875L10.625 4.71875L9.5 5.96875C9.1875 6.3125 8.75 6.5 8.3125 6.5C7.84375 6.5 7.4375 6.3125 7.125 5.96875L6 4.71875L4.875 5.96875C4.5625 6.3125 4.15625 6.5 3.6875 6.5C3.625 6.5 3.53125 6.5 3.46875 6.5C2.96875 6.4375 2.71875 6.0625 2.625 5.84375C2.46875 5.5 2.40625 5 2.6875 4.53125L4.5625 1.5H16.6562L18.5312 4.53125C18.8125 5 18.75 5.5 18.5938 5.84375Z" fill="#6F382B"/>
</svg>
