<svg width="16" height="16" viewBox="0 0 16 16" fill="none" xmlns="http://www.w3.org/2000/svg">
<path d="M15.75 8C15.7188 3.71875 12.25 0.25 8 0.25C5.84375 0.25 3.875 1.15625 2.46875 2.5625L1.0625 1.15625C0.84375 0.9375 0.4375 1.09375 0.4375 1.4375V5.375C0.4375 5.59375 0.59375 5.75 0.8125 5.75H4.8125C5.15625 5.75 5.3125 5.34375 5.09375 5.125L3.5625 3.625C4.6875 2.46875 6.25 1.75 8 1.75C11.4375 1.75 14.25 4.5625 14.25 8C14.25 11.4688 11.4375 14.25 8 14.25C6.375 14.25 4.9375 13.6562 3.8125 12.6875C3.6875 12.5625 3.4375 12.5625 3.3125 12.6875L2.78125 13.2188C2.625 13.375 2.625 13.625 2.78125 13.7812C4.15625 15 6 15.7812 8 15.75C12.25 15.75 15.75 12.2812 15.75 8ZM10.5 10.8125L10.9688 10.2188C11.0625 10.0312 11.0312 9.8125 10.875 9.6875L8.75 8.125V3.625C8.75 3.4375 8.5625 3.25 8.375 3.25H7.625C7.40625 3.25 7.25 3.4375 7.25 3.625V8.90625L10 10.9062C10.1562 11.0312 10.4062 11 10.5 10.8125Z" fill="#757575"/>
</svg>
