<svg width="14" height="16" viewBox="0 0 14 16" fill="none" xmlns="http://www.w3.org/2000/svg">
<path d="M13.5 2.5C13.6458 2.5 13.7604 2.55208 13.8438 2.65625C13.9479 2.73958 14 2.85417 14 3V3.5C14 3.64583 13.9479 3.77083 13.8438 3.875C13.7604 3.95833 13.6458 4 13.5 4H13L12.3438 14.5938C12.3229 14.9896 12.1667 15.3229 11.875 15.5938C11.5833 15.8646 11.2396 16 10.8438 16H3.15625C2.76042 16 2.41667 15.8646 2.125 15.5938C1.83333 15.3229 1.67708 14.9896 1.65625 14.5938L1 4H0.5C0.354167 4 0.229167 3.95833 0.125 3.875C0.0416667 3.77083 0 3.64583 0 3.5V3C0 2.85417 0.0416667 2.73958 0.125 2.65625C0.229167 2.55208 0.354167 2.5 0.5 2.5H3.0625L4.125 0.71875C4.41667 0.239583 4.85417 0 5.4375 0H8.5625C9.14583 0 9.58333 0.239583 9.875 0.71875L10.9375 2.5H13.5ZM5.4375 1.5L4.8125 2.5H9.1875L8.5625 1.5H5.4375ZM10.8438 14.5L11.5 4H2.5L3.15625 14.5H10.8438Z" fill="#757575"/>
</svg>
