<svg width="17" height="16" viewBox="0 0 17 16" fill="none" xmlns="http://www.w3.org/2000/svg">
<path d="M15.4375 1.75C15.8333 2.14583 16.0312 2.625 16.0312 3.1875C16.0312 3.72917 15.8333 4.19792 15.4375 4.59375L13.125 6.90625L12.0312 8L4.4375 15.5938L0.875 16C0.833333 16 0.802083 16 0.78125 16C0.552083 16 0.364583 15.9167 0.21875 15.75C0.0729167 15.5833 0.0104167 15.3854 0.03125 15.1562L0.4375 11.5938L8.03125 4L9.125 2.90625L11.4375 0.59375C11.8333 0.197917 12.3021 0 12.8438 0C13.4062 0 13.8854 0.197917 14.2812 0.59375L15.4375 1.75ZM3.75 14.1562L10.9688 6.9375L11.9375 5.96875L10.0625 4.09375L9.09375 5.0625L1.875 12.2812L1.625 14.4062L3.75 14.1562ZM14.375 3.53125C14.625 3.30208 14.625 3.0625 14.375 2.8125L13.2188 1.65625C13.1146 1.55208 12.9896 1.5 12.8438 1.5C12.7188 1.5 12.6042 1.55208 12.5 1.65625L11.125 3.03125L13 4.90625L14.375 3.53125Z" fill="#757575"/>
</svg>
